<?xml version="1.0" ?><!DOCTYPE svg  PUBLIC '-//W3C//DTD SVG 1.1//EN'  'http://www.w3.org/Graphics/SVG/1.1/DTD/svg11.dtd'><svg enable-background="new 0 0 512 512" height="512px" id="Calque_1" version="1.1" viewBox="0 0 512 512" width="512px" xml:space="preserve" xmlns="http://www.w3.org/2000/svg" xmlns:xlink="http://www.w3.org/1999/xlink"><g><path d="M462.44,149.72c-0.011-0.04-0.011-0.08-0.021-0.12c-0.061-0.271-0.15-0.54-0.25-0.811c-0.021-0.05-0.04-0.1-0.07-0.149   c-0.109-0.25-0.239-0.49-0.39-0.721c-0.03-0.05-0.061-0.09-0.091-0.14c-0.159-0.22-0.33-0.44-0.529-0.64   c-0.03-0.03-0.051-0.051-0.08-0.07c-0.09-0.1-0.189-0.19-0.3-0.28l-12.75-10.529l-41.921-34.601c-0.06-0.05-0.14-0.09-0.21-0.14   c-0.109-0.08-0.22-0.16-0.33-0.23c-0.149-0.1-0.3-0.18-0.46-0.25c-0.119-0.06-0.239-0.12-0.359-0.17   c-0.18-0.07-0.359-0.12-0.55-0.17c-0.11-0.03-0.221-0.06-0.33-0.09c-0.311-0.05-0.62-0.09-0.939-0.09H261.04c-2.761,0-5,2.24-5,5   v61H240.98l-30.069-41.53c-1.08-1.479-2.19-3.02-4.74-3.02H104.13c-11.03,0-20,8.97-20,20v10.279H69.47c-11.03,0-20,8.971-20,20   V392.8c0,10.301,8.38,18.682,18.68,18.682h307.26c0.16,0,0.301-0.03,0.46-0.051c0.439,0.029,0.891,0.051,1.341,0.051   c12.3,0,22.31-10.011,22.31-22.312v-23.21h58.011c2.761,0,5-2.239,5-5V150.65C462.53,150.33,462.5,150.02,462.44,149.72z    M407.86,116.13l32.989,27.24l2.771,2.28h-35.76V116.13z M94.13,141.97c0-5.521,4.49-10,10-10h99.49   c1.58,2.18,4.26,5.89,7.3,10.079l23.45,32.4c0.149,0.19,0.3,0.37,0.47,0.54c0.05,0.05,0.1,0.1,0.149,0.15   c0.181,0.17,0.36,0.319,0.561,0.46c0.04,0.029,0.07,0.06,0.11,0.08c0.22,0.149,0.46,0.27,0.699,0.38c0.08,0.04,0.15,0.069,0.23,0.1   c0.24,0.101,0.49,0.18,0.75,0.23c0.07,0.02,0.14,0.029,0.22,0.04c0.26,0.05,0.521,0.08,0.79,0.08c0.021,0,0.05,0.01,0.07,0.01   h17.62v19.96h-49.73l-30.06-41.23c-0.4-0.54-0.79-1.069-1.24-1.529c-0.09-0.091-0.18-0.181-0.28-0.261   c-0.069-0.08-0.149-0.14-0.22-0.199c-0.13-0.101-0.25-0.19-0.39-0.28c-0.101-0.07-0.2-0.13-0.311-0.18   c-0.07-0.04-0.13-0.08-0.21-0.11c-0.17-0.08-0.34-0.15-0.53-0.21h-0.01c-0.229-0.07-0.479-0.13-0.75-0.17   c-0.13-0.021-0.27-0.04-0.41-0.05c-0.149-0.011-0.29-0.011-0.43-0.011H94.13V141.97z M69.47,401.481c-5.52,0-10-4.49-10-10V172.25   c0-5.52,4.48-10,10-10h99.5c1.59,2.17,4.29,5.88,7.34,10.061l23.41,32.109c0.06,0.08,0.13,0.141,0.2,0.21   c0.13,0.16,0.26,0.32,0.41,0.471c0.1,0.09,0.21,0.17,0.31,0.25c0.15,0.12,0.3,0.239,0.46,0.34c0.11,0.07,0.23,0.13,0.34,0.189   c0.181,0.091,0.351,0.181,0.53,0.25c0.12,0.051,0.24,0.08,0.36,0.11c0.189,0.06,0.38,0.11,0.58,0.15   c0.13,0.02,0.27,0.029,0.399,0.04c0.15,0.01,0.3,0.05,0.45,0.05h142.46c4.95,0,8.681,4.12,8.681,9.59v173.99   c0,0.131,0.029,0.239,0.04,0.37c0.229,4.069,1.55,7.851,3.68,11.051H69.47z M377.21,401.481c-6.78,0-12.29-5.511-12.311-12.29   V379.17c0.09-0.37,0.149-0.75,0.149-1.149s-0.061-0.779-0.149-1.149v-10.91h24.619v23.209h0.001   C389.52,395.96,384,401.481,377.21,401.481z M364.9,355.96V216.07c0-0.31-0.011-0.61-0.021-0.91c-0.011-0.22-0.021-0.439-0.04-0.66   c-0.011-0.2-0.03-0.41-0.051-0.609c-0.1-0.95-0.25-1.87-0.47-2.771c-0.07-0.32-0.16-0.63-0.25-0.939   c-0.09-0.301-0.181-0.61-0.29-0.91c-0.069-0.21-0.141-0.41-0.221-0.61c-0.09-0.229-0.18-0.46-0.271-0.68   c-0.09-0.22-0.189-0.44-0.29-0.66c-0.31-0.66-0.649-1.3-1.029-1.91c-0.12-0.2-0.25-0.399-0.38-0.6   c-0.109-0.181-0.229-0.36-0.351-0.54c-1-1.4-2.17-2.65-3.49-3.71c-0.18-0.16-0.369-0.301-0.56-0.44   c-0.19-0.149-0.381-0.28-0.58-0.42c-0.03-0.03-0.061-0.05-0.091-0.06c-0.13-0.101-0.271-0.19-0.399-0.261   c-0.521-0.35-1.061-0.659-1.609-0.939c-0.04-0.021-0.08-0.03-0.12-0.061c-0.271-0.13-0.55-0.26-0.83-0.38   c-1.619-0.71-3.35-1.189-5.18-1.39c-0.2-0.03-0.391-0.05-0.591-0.061c-0.01-0.01-0.021-0.01-0.029,0   c-0.189-0.02-0.38-0.039-0.561-0.039c-0.33-0.021-0.649-0.03-0.979-0.03h-80.18v-85.96h131.819v40.13c0,2.76,2.239,5,5,5h49.67   v200.31H364.9z"/><path d="M328.5,298.98H244.73c-2.76,0-5,2.239-5,5c0,2.76,2.24,5,5,5H328.5c2.76,0,5-2.24,5-5   C333.5,301.219,331.26,298.98,328.5,298.98z"/><path d="M328.5,324.97H244.73c-2.76,0-5,2.239-5,5s2.24,5,5,5H328.5c2.76,0,5-2.239,5-5S331.26,324.97,328.5,324.97z"/><path d="M244.73,282.99h32.101c2.77,0,5-2.24,5-5s-2.23-5-5-5H244.73c-2.76,0-5,2.24-5,5S241.97,282.99,244.73,282.99z"/><path d="M209.44,252.176h-114c-2.76,0-5,2.239-5,5v84c0,2.771,2.24,5,5,5h114c2.761,0,5-2.229,5-5v-84   C214.44,254.415,212.2,252.176,209.44,252.176z M204.44,336.176h-104v-74h104V336.176z"/><path d="M123.862,324.504c3.312,0,5.542-2.447,5.542-6.261c0-3.888-2.447-6.263-5.47-6.263c-2.878,0-5.541,2.664-5.541,6.263   C118.393,322.057,120.912,324.504,123.862,324.504z"/><path d="M149.481,308.455v-33.033h-9.5v33.465c0,6.261-2.302,7.341-5.038,7.341c-1.222,0-2.156-0.071-3.094-0.359l-0.791,7.917   c1.08,0.432,2.808,0.719,4.75,0.719C142.717,324.504,149.481,322.417,149.481,308.455z"/><path d="M164.088,316.155c-2.735,0-6.045-0.792-7.989-1.871l-1.371,8.134c1.584,0.935,5.399,1.943,9.284,1.943   c9.5,0,16.049-5.83,16.049-14.682c0-5.11-2.374-10.004-8.778-13.891c-5.254-3.166-6.693-4.678-6.693-7.556   c0-2.592,1.945-5.038,5.974-5.038c2.736,0,4.822,0.791,6.189,1.655l1.513-8.133c-1.44-0.864-4.463-1.728-7.629-1.728   c-10.146,0-15.328,6.477-15.328,14.25c0,4.389,2.52,9.499,9.14,13.528c4.104,2.664,6.262,4.391,6.262,7.917   C170.709,313.852,168.551,316.155,164.088,316.155z"/></g></svg>